<?xml version="1.0" ?><!DOCTYPE svg  PUBLIC '-//W3C//DTD SVG 1.1//EN'  'http://www.w3.org/Graphics/SVG/1.1/DTD/svg11.dtd'><svg enable-background="new 0 0 64 64" height="64px" id="Layer_1" version="1.1" viewBox="0 0 64 64" width="64px" xml:space="preserve" xmlns="http://www.w3.org/2000/svg" xmlns:xlink="http://www.w3.org/1999/xlink"><g><path d="M8.4,1.391L8.391,1.388c0.062,3.144-1.618,7.171-1.837,10.428c-0.177,2.594,0.917,4.326,1.899,5.339   c0.01,0.01,0.026,0.026,0.04,0.04c0.056,0.056,0.11,0.11,0.164,0.159c0.344,0.36,0.593,0.301,0.767,0.134   c0.239-0.379,0.352-1.184,0.352-1.184l0.021-0.017c0.311-2.454,2.12-4.555,2.461-9.073C12.53,3.599,11.285,1.84,9.798,0.44   C8.379-0.792,8.4,1.391,8.4,1.391z" fill="#241F20"/><path d="M15.202,3.212l-0.007,0.005c0.583,4.364-0.943,9.62-1.768,12.041v0.001   c-0.354,1.135-0.179,1.674,0.022,1.932c0.465,0.39,1.114,0.644,1.848,0.644h3.196c0.282,0.006,1.353,0.119,1.353,1.463V62.26   c0,0.926,0.75,1.677,1.677,1.677h0.907c0.927,0,1.677-0.751,1.677-1.677V3.476c0-0.927-0.75-1.677-1.677-1.677h-0.131h-0.776h-1.89   H19.26h-3.144C14.911,1.799,15.202,3.212,15.202,3.212z" fill="#241F20"/><path d="M56.981,46.508l-1.674-29.453c-0.002-0.014-0.003-0.022-0.003-0.035c-0.321-5.655-2.292-6.616-3.236-6.748   h-0.625c-1.467-0.007-1.467-2.01-1.467-2.01h-0.004V3.433c0-0.926-0.75-1.677-1.677-1.677h-3.354c-0.927,0-1.677,0.75-1.677,1.677   v4.829c0,0,0,2.003-1.468,2.01h-0.506c-2.161,0-2.773,3.202-2.949,4.948l-0.07,1.1c0,0,0,0.007,0,0.007l-1.94,30.032l-0.56,13.831   v2.07c0,0.927,0.752,1.677,1.677,1.677h18.34c0.927,0,1.677-0.75,1.677-1.677v-3.493L56.981,46.508z M54.34,59.269   c0,0.677-0.549,1.226-1.227,1.226H41.196c-1.782,0-1.723-2.112-1.723-2.112l1.856-35.249l0.588-7.323   c0.002-0.002,0.002-0.004,0.002-0.006c0.146-1.82,1.243-2.103,1.745-2.138h6.673c0.383,0.008,1.569,0.17,1.687,1.882   c0,0.003,0.002,0.005,0.002,0.008l0.723,10.529c0.003,0.039,0.009,0.067,0.011,0.106c0,0.009,0.002,0.016,0.004,0.025l1.223,21.534   l0.354,8.963V59.269z" fill="#241F20"/></g></svg>