<?xml version="1.0" ?><!DOCTYPE svg  PUBLIC '-//W3C//DTD SVG 1.1//EN'  'http://www.w3.org/Graphics/SVG/1.1/DTD/svg11.dtd'><svg id="Camada_1" style="enable-background:new 0 0 100 100;" version="1.1" viewBox="0 0 100 100" xml:space="preserve" xmlns="http://www.w3.org/2000/svg" xmlns:xlink="http://www.w3.org/1999/xlink"><path d="M48.5,61.4v7.2H45c-0.8,0-1.5,0.7-1.5,1.5s0.7,1.5,1.5,1.5h3.5V75c0,0.8,0.7,1.5,1.5,1.5s1.5-0.7,1.5-1.5v-3.4H55  c0.8,0,1.5-0.7,1.5-1.5s-0.7-1.5-1.5-1.5h-3.5v-7.2c8.4-0.8,15-7.8,15-16.4c0-9.1-7.4-16.5-16.5-16.5S33.5,35.9,33.5,45  C33.5,53.6,40.1,60.7,48.5,61.4z M50,31.5c7.4,0,13.5,6.1,13.5,13.5S57.4,58.5,50,58.5S36.5,52.4,36.5,45S42.6,31.5,50,31.5z"/></svg>