<?xml version="1.0" ?><!DOCTYPE svg  PUBLIC '-//W3C//DTD SVG 1.1//EN'  'http://www.w3.org/Graphics/SVG/1.1/DTD/svg11.dtd'><svg enable-background="new 0 0 512 481.9" height="481.9px" id="Layer_1" version="1.1" viewBox="0 0 512 481.9" width="512px" xml:space="preserve" xmlns="http://www.w3.org/2000/svg" xmlns:xlink="http://www.w3.org/1999/xlink"><g id="meanicons_x5F_16"><g><path d="M506.006,241.031c-65.234-76.871-112.622-99.213-202.342-102.424c-4.145-0.47-8.107-0.513-11.766-0.187    c-4.949-14.742-16.729-25.52-31.026-27.707c1.537-15.391,11.035-23.088,21.151-31.063c9.43-7.515,19.191-15.211,19.191-29.39    c0-28.168-20.432-51.162-45.52-51.162c-25.09,0-45.526,22.994-45.526,51.162c0,3.035,2.189,5.51,4.883,5.51    c2.679,0,4.848-2.475,4.848-5.51c0-22.158,16.043-40.248,35.796-40.248c19.748,0,35.819,18.09,35.819,40.248    c0,8.07-5.741,13.06-15.091,20.48c-10.652,8.393-23.598,18.934-25.256,39.928c-14.553,1.959-26.609,12.781-31.644,27.658    c-3.311-0.188-6.813-0.141-10.49,0.279c-89.74,3.211-137.112,25.553-202.336,102.424c-12.311,16.52-4.944,43.189,6.9,51.961    c11.843,8.768,34.4,8.91,44.015-3.963c42.604-67.633,77.795-94.32,155.006-109.793c3.716-0.424,7.28-0.984,10.57-1.779    c6.925,11.986,18.862,19.961,32.506,19.961c13.763,0,25.749-8.115,32.651-20.244c3.594,0.979,7.556,1.588,11.724,2.063    c77.22,15.474,112.396,42.16,155.017,109.793c9.584,12.873,32.142,12.729,43.992,3.963    C510.923,284.221,518.297,257.552,506.006,241.031z"/><path d="M414.475,261.88h-19.299H117.502H98.233c-6.014,0-10.915,5.502-10.915,12.266c0,6.811,4.901,12.318,10.915,12.318h19.269    v194.537h277.673V286.464h19.299c6.008,0,10.906-5.508,10.906-12.318C425.381,267.382,420.482,261.88,414.475,261.88z"/></g></g><g id="Layer_1_1_"/></svg>