<?xml version="1.0" encoding="iso-8859-1"?>
<!-- Generator: Adobe Illustrator 18.1.1, SVG Export Plug-In . SVG Version: 6.00 Build 0)  -->
<svg version="1.1" id="Capa_1" xmlns="http://www.w3.org/2000/svg" xmlns:xlink="http://www.w3.org/1999/xlink" x="0px" y="0px"
	 viewBox="0 0 18.136 18.136" style="enable-background:new 0 0 18.136 18.136;" xml:space="preserve">
<g>
	<path style="fill:#010002;" d="M16.28,0.001H1.854C0.831,0.001,0,0.83,0,1.855v14.426c0,1.025,0.831,1.854,1.854,1.854H16.28
		c1.025,0,1.856-0.828,1.856-1.854V1.855C18.136,0.83,17.305,0.001,16.28,0.001z M15.964,3.994c0,0-2.685-0.98-2.685,1.014v1.506
		h2.619l-0.232,2.488h-2.387v8.479h-3.208V9.002H8.499V6.514h1.572V5.008V3.897c0,0-0.033-2.021,2.603-2.603
		c1.85-0.41,3.649,0.181,3.649,0.181L15.964,3.994z"/>
</g>
<g>
</g>
<g>
</g>
<g>
</g>
<g>
</g>
<g>
</g>
<g>
</g>
<g>
</g>
<g>
</g>
<g>
</g>
<g>
</g>
<g>
</g>
<g>
</g>
<g>
</g>
<g>
</g>
<g>
</g>
</svg>
