<?xml version="1.0" ?><!DOCTYPE svg  PUBLIC '-//W3C//DTD SVG 1.1//EN'  'http://www.w3.org/Graphics/SVG/1.1/DTD/svg11.dtd'><svg enable-background="new 0 0 64 64" height="64px" id="Layer_1" version="1.1" viewBox="0 0 64 64" width="64px" xml:space="preserve" xmlns="http://www.w3.org/2000/svg" xmlns:xlink="http://www.w3.org/1999/xlink"><g><path d="M56.034,35.451H7.441c-2.212,0-2.578,1.412-2.609,2.235C5.927,52.366,17.66,63.938,32,63.938   c14.117,0,25.729-11.203,27.134-25.556c0.006-0.023,0.003-0.044,0.006-0.067c0.019-0.181,0.013-0.365,0.028-0.548   C59.083,35.706,56.807,35.471,56.034,35.451z M31.969,60.465c-11,0-19.965-9.008-20.566-20.337c0.088-0.554,0.475-1.203,1.86-1.203   h37.794c0.374,0.008,1.472,0.17,1.459,1.607C51.726,51.672,42.84,60.465,31.969,60.465z" fill="#241F20"/><path d="M27.788,11.428" fill="#241F20"/><path d="M47.008,16.879c-0.295-0.757-0.73-1.442-1.305-2.002c-0.013-0.017-0.016-0.027-0.031-0.044   c-0.013-0.016-0.028-0.025-0.044-0.041c-0.013-0.011-0.025-0.022-0.038-0.035c-0.223-0.237-0.464-0.423-0.705-0.596   c-0.075-0.055-0.15-0.108-0.232-0.157c-0.179-0.111-0.357-0.202-0.539-0.285c-1.75-0.762-4.109-0.579-4.109-0.579H28.52h-0.535   h-2.5c0,0-1.223,0.003-2.007-0.312c-0.125-0.062-0.248-0.121-0.364-0.196c-0.016-0.014-0.041-0.023-0.06-0.039   c-0.878-0.605-1.458-1.619-1.458-2.768c0-1.857,1.506-3.362,3.362-3.362h6.925h0.806h0.625c2.889,0,3.412-2.104,3.503-3.069V1.101   c0-0.883-0.646-1.024-0.743-1.04c-0.941,0.028-2.443,0.263-2.443,1.517c0,0.296,0,0.528,0,0.735   c-0.034,0.378-0.26,1.081-1.53,1.081h-7.619c-0.016,0.001-0.028,0.001-0.041,0.001c-0.003,0-0.009-0.001-0.012-0.001   c-0.013,0-0.028,0.004-0.041,0.004c-0.474,0.025-0.928,0.068-1.311,0.132c-0.006,0.001-0.012,0.001-0.019,0.003   c-0.267,0.047-0.502,0.104-0.674,0.175c-0.057,0.025-0.094,0.05-0.132,0.075c-2.663,0.91-4.592,3.408-4.592,6.38   c0,3.282,2.336,6.016,5.436,6.637c0.42,0.106,0.859,0.177,1.308,0.204v0.028l0.289,0.001c0.038,0,0.076,0.011,0.113,0.011   s0.072-0.009,0.113-0.011l0.822,0.003v0.006l14.497-0.002c1.944,0,2.785,0.522,3.134,0.872c0.21,0.439,0.338,0.925,0.338,1.446   c0,1.15-0.577,2.163-1.458,2.768c-0.016,0.016-0.041,0.025-0.06,0.039c-0.113,0.076-0.238,0.135-0.36,0.196   c-0.788,0.315-2.011,0.312-2.011,0.312h-6.398l-9.378-0.001c0,0-1.129-0.016-2.218,0.318c-0.028,0.009-0.056,0.019-0.088,0.03   c-0.113,0.036-0.226,0.077-0.338,0.122c-0.577,0.24-1.167,0.599-1.681,1.148c-0.013,0.013-0.025,0.023-0.038,0.035   c-0.016,0.016-0.032,0.025-0.044,0.041c-0.016,0.018-0.019,0.027-0.032,0.044c-1.044,1.02-1.697,2.431-1.697,4.007   c0,0.369,0.047,0.722,0.125,1.065c0.085,0.317,0.398,1.044,1.452,1.049h0.486c1.179-0.027,1.483-2.194,1.483-2.194l0.006,0.001   c0.072-0.254,0.172-0.494,0.317-0.709c0.006-0.009,0.009-0.017,0.019-0.028c0.016-0.022,0.035-0.039,0.05-0.061   c0.289-0.34,1.101-0.964,3.225-0.964l14.494,0.001v-0.006l0.824-0.003c0.038,0.001,0.075,0.011,0.113,0.011   s0.072-0.011,0.109-0.011l0.292-0.002V26.54c0.448-0.027,0.885-0.097,1.305-0.204c3.103-0.621,5.438-3.354,5.438-6.637   C47.647,18.688,47.409,17.737,47.008,16.879z" fill="#241F20"/></g></svg>