<?xml version="1.0" ?><!DOCTYPE svg  PUBLIC '-//W3C//DTD SVG 1.1//EN'  'http://www.w3.org/Graphics/SVG/1.1/DTD/svg11.dtd'><svg enable-background="new 0 0 64 64" height="64px" id="Layer_1" version="1.1" viewBox="0 0 64 64" width="64px" xml:space="preserve" xmlns="http://www.w3.org/2000/svg" xmlns:xlink="http://www.w3.org/1999/xlink"><g><g><path d="M54.173,52.728c-0.482,0.265-0.997,0.39-1.528,0.39c-1.296,0-2.606-0.765-3.326-2.076l-6.51-11.901H25.994    c-0.093,0-0.186,0-0.28-0.015h-0.141c-2.592,0.095-4.808-1.888-4.98-4.494l-1.108-16.908c-0.171-2.654,1.842-4.949,4.498-5.121    l0.997-0.061c2.656-0.174,4.949,1.826,5.123,4.479l0.295,4.668h10.259c1.312,0,2.372,1.186,2.372,2.637    c0,1.453-1.061,2.639-2.372,2.639h-9.917l0.25,3.763h12.274c0.467,0,0.905,0.078,1.326,0.218c1.076,0.188,2.092,0.891,2.702,1.999    l8.086,14.785C56.374,49.574,55.844,51.807,54.173,52.728z" fill="#241F20"/></g><g><circle cx="24.547" cy="5.627" fill="#241F20" r="5.594"/></g><g><line fill="#241F20" x1="28.006" x2="28.015" y1="30.869" y2="31.003"/><path d="M40.076,43.046H23.262c-0.095,0-0.188,0-0.281-0.015h-0.14c-2.592,0.091-4.809-1.891-4.982-4.498    l-0.719-10.975c-5.425,3.534-9.018,9.643-9.018,16.601c0,10.94,8.869,19.808,19.809,19.808c7.716,0,14.383-4.419,17.655-10.855    L40.076,43.046z" fill="#241F20"/></g></g></svg>