<?xml version="1.0" ?><!DOCTYPE svg  PUBLIC '-//W3C//DTD SVG 1.1//EN'  'http://www.w3.org/Graphics/SVG/1.1/DTD/svg11.dtd'><svg enable-background="new 0 0 500 500" height="500px" id="Layer_1" version="1.1" viewBox="0 0 500 500" width="500px" xml:space="preserve" xmlns="http://www.w3.org/2000/svg" xmlns:xlink="http://www.w3.org/1999/xlink"><path clip-rule="evenodd" d="M31.949,431.711c0,20.078,16.264,36.34,36.34,36.34h363.421  c20.078,0,36.34-16.262,36.34-36.34V159.145c0-20.078-16.262-36.342-36.34-36.342h-72.685V68.29c0-20.077-16.263-36.34-36.342-36.34  H177.317c-20.079,0-36.342,16.264-36.342,36.34v54.513H68.29c-20.077,0-36.34,16.264-36.34,36.342V431.711z M313.599,122.802  H186.401V97.367c0-11.083,8.905-19.991,19.991-19.991h87.215c11.085,0,19.991,8.909,19.991,19.991V122.802z M160.963,250h43.61  v-43.608c0-11.083,8.902-19.991,19.989-19.991h50.877c11.08,0,19.987,8.909,19.987,19.991V250h43.607  c11.085,0,19.992,8.907,19.992,19.991v50.875c0,11.081-8.907,19.986-19.992,19.986h-43.607v43.613  c0,11.08-8.907,19.986-19.987,19.986h-50.877c-11.086,0-19.989-8.906-19.989-19.986v-43.613h-43.61  c-11.086,0-19.989-8.905-19.989-19.986v-50.875C140.975,258.907,149.877,250,160.963,250z" fill="#010101" fill-rule="evenodd"/></svg>