<?xml version="1.0" ?><!DOCTYPE svg  PUBLIC '-//W3C//DTD SVG 1.1//EN'  'http://www.w3.org/Graphics/SVG/1.1/DTD/svg11.dtd'><svg height="32px" id="Layer_1" style="enable-background:new 0 0 32 32;" version="1.1" viewBox="0 0 32 32" width="32px" xml:space="preserve" xmlns="http://www.w3.org/2000/svg" xmlns:xlink="http://www.w3.org/1999/xlink"><g transform="translate(96 144)"><path d="M-80-140c6.617,0,12,5.383,12,12s-5.383,12-12,12s-12-5.383-12-12S-86.617-140-80-140z M-80-142c-7.732,0-14,6.268-14,14   c0,7.73,6.268,14,14,14c7.732,0,14-6.27,14-14C-66-135.732-72.268-142-80-142L-80-142z M-84-135c-1.105,0-2,1.344-2,3   c0,1.658,0.895,3,2,3s2-1.342,2-3C-82-133.656-82.895-135-84-135z M-76-135c-1.105,0-2,1.344-2,3c0,1.658,0.895,3,2,3s2-1.342,2-3   C-74-133.656-74.895-135-76-135z M-71.4-121.2c0.441-0.331,0.531-0.958,0.201-1.399c-2.068-2.756-5.357-4.399-8.801-4.399   c-3.444,0-6.733,1.646-8.8,4.399c-0.332,0.441-0.242,1.068,0.199,1.399c0.442,0.33,1.068,0.241,1.4-0.2   c1.691-2.254,4.383-3.6,7.2-3.6c2.815,0,5.51,1.346,7.198,3.6c0.197,0.263,0.498,0.4,0.802,0.4   C-71.792-121-71.581-121.064-71.4-121.2L-71.4-121.2z"/></g></svg>