<?xml version="1.0" encoding="iso-8859-1"?>
<!-- Generator: Adobe Illustrator 19.0.0, SVG Export Plug-In . SVG Version: 6.00 Build 0)  -->
<svg xmlns="http://www.w3.org/2000/svg" xmlns:xlink="http://www.w3.org/1999/xlink" version="1.1" id="Layer_1" x="0px" y="0px" viewBox="0 0 512 512" style="enable-background:new 0 0 512 512;" xml:space="preserve" width="512px" height="512px">
<g>
	<g>
		<path d="M362.672,42.66h-53.328c0,29.414-23.938,53.336-53.344,53.336s-53.328-23.922-53.328-53.336h-53.336L0,127.996    l42.672,117.336l64-21.336V469.34h298.672V223.996l64,21.336L512,127.996L362.672,42.66z M456.375,218.527l-44.297-14.766    L384,194.395v29.602v224H128v-224v-29.602l-28.078,9.367l-44.297,14.766l-29.43-80.93L155,63.996h29.43    c9.18,30.844,37.75,53.336,71.57,53.336c33.828,0,62.391-22.492,71.562-53.336H357l128.812,73.602L456.375,218.527z" fill="#FFFFFF"/>
	</g>
</g>
<g>
</g>
<g>
</g>
<g>
</g>
<g>
</g>
<g>
</g>
<g>
</g>
<g>
</g>
<g>
</g>
<g>
</g>
<g>
</g>
<g>
</g>
<g>
</g>
<g>
</g>
<g>
</g>
<g>
</g>
</svg>
