<?xml version="1.0" encoding="iso-8859-1"?>
<!-- Generator: Adobe Illustrator 18.0.0, SVG Export Plug-In . SVG Version: 6.00 Build 0)  -->
<!DOCTYPE svg PUBLIC "-//W3C//DTD SVG 1.1//EN" "http://www.w3.org/Graphics/SVG/1.1/DTD/svg11.dtd">
<svg xmlns="http://www.w3.org/2000/svg" xmlns:xlink="http://www.w3.org/1999/xlink" version="1.1" id="Capa_1" x="0px" y="0px" viewBox="0 0 436.181 436.181" style="enable-background:new 0 0 436.181 436.181;" xml:space="preserve" width="512px" height="512px">
<g>
	<path d="M431.878,157.075l-57.857-27.278c0.459-3.687,0.056-7.455-1.237-11.053c-2.167-6.033-6.554-10.861-12.352-13.595   L183.854,21.898c-9.784-4.614-20.779-5.14-30.96-1.483c-10.179,3.656-18.326,11.057-22.939,20.84c0,0.001-0.001,0.002-0.002,0.004   l-14.072,29.847c-0.848,1.799-0.946,3.862-0.274,5.734c0.673,1.872,2.061,3.4,3.86,4.249l112.605,53.09   c1.033,0.487,2.121,0.718,3.193,0.718c2.813,0,5.51-1.59,6.789-4.304l10.874-23.063l87.034,41.034   c3.252,1.533,6.728,2.305,10.219,2.305c2.734,0,5.479-0.474,8.129-1.425c3.596-1.292,6.75-3.387,9.301-6.085l57.87,27.284   c1.033,0.487,2.121,0.718,3.193,0.718c2.813,0,5.51-1.591,6.789-4.304C437.229,163.311,435.625,158.841,431.878,157.075z    M231.686,117.412l-99.038-46.694l7.675-16.28l99.038,46.694L231.686,117.412z M353.239,135.326   c-2.26,0.812-4.703,0.695-6.878-0.33c-0.001,0-0.001,0-0.001,0L207.268,69.419l-59.541-28.072   c2.768-3.045,6.256-5.385,10.237-6.815c6.407-2.302,13.332-1.971,19.493,0.934l176.578,83.251c2.174,1.025,3.818,2.835,4.631,5.098   c0.813,2.263,0.695,4.706-0.33,6.88C357.313,132.869,355.502,134.514,353.239,135.326z" fill="#FFFFFF"/>
	<path d="M49.998,261.527c-3.744-1.766-8.216-0.163-9.982,3.585L6.754,335.66c-1.766,3.747-0.161,8.216,3.586,9.982   c1.033,0.487,2.121,0.718,3.193,0.718c2.813,0,5.51-1.59,6.789-4.304l33.262-70.548C55.35,267.762,53.745,263.293,49.998,261.527z" fill="#FFFFFF"/>
	<path d="M55.115,250.673c1.033,0.487,2.121,0.718,3.193,0.718c2.813,0,5.51-1.59,6.789-4.304l42.856-90.898   c1.766-3.747,0.161-8.216-3.586-9.982c-3.745-1.766-8.216-0.163-9.982,3.585l-42.856,90.898   C49.764,244.438,51.368,248.907,55.115,250.673z" fill="#FFFFFF"/>
	<path d="M108.846,136.712c1.033,0.487,2.121,0.718,3.193,0.718c2.813,0,5.51-1.591,6.789-4.304l13.433-28.491   c1.766-3.747,0.161-8.216-3.586-9.982c-3.743-1.766-8.216-0.162-9.982,3.586L105.26,126.73   C103.494,130.476,105.099,134.945,108.846,136.712z" fill="#FFFFFF"/>
	<path d="M109.726,210.089c-3.744-1.766-8.216-0.162-9.982,3.585l-63.965,135.67c-1.766,3.747-0.161,8.216,3.586,9.982   c1.033,0.487,2.121,0.718,3.193,0.718c2.813,0,5.51-1.59,6.789-4.304l63.965-135.67   C115.077,216.324,113.473,211.855,109.726,210.089z" fill="#FFFFFF"/>
	<path d="M157.699,108.338c-3.744-1.767-8.216-0.162-9.982,3.585l-35.82,75.975c-1.766,3.747-0.161,8.216,3.586,9.982   c1.033,0.487,2.121,0.718,3.193,0.718c2.813,0,5.51-1.59,6.789-4.304l35.82-75.975   C163.051,114.573,161.446,110.104,157.699,108.338z" fill="#FFFFFF"/>
	<path d="M83.74,340.45c-3.744-1.766-8.216-0.163-9.982,3.585l-8.955,18.994c-1.766,3.747-0.161,8.216,3.586,9.982   c1.033,0.487,2.121,0.718,3.193,0.718c2.813,0,5.51-1.59,6.789-4.304l8.955-18.994C89.092,346.685,87.487,342.216,83.74,340.45z" fill="#FFFFFF"/>
	<path d="M97.561,328.724l69.082-146.523c1.766-3.747,0.161-8.216-3.586-9.982c-3.744-1.766-8.216-0.163-9.982,3.585L83.992,322.328   c-1.766,3.747-0.161,8.216,3.586,9.982c1.033,0.487,2.121,0.718,3.193,0.718C93.584,333.028,96.281,331.438,97.561,328.724z" fill="#FFFFFF"/>
	<path d="M166.255,165.436c1.033,0.487,2.121,0.718,3.193,0.718c2.813,0,5.51-1.59,6.789-4.304l14.072-29.847   c1.766-3.747,0.161-8.216-3.586-9.982c-3.744-1.766-8.216-0.163-9.982,3.585l-14.072,29.847   C160.903,159.201,162.508,163.67,166.255,165.436z" fill="#FFFFFF"/>
	<path d="M148.585,278.159c-3.743-1.766-8.216-0.163-9.982,3.585l-44.775,94.969c-1.766,3.747-0.161,8.216,3.586,9.982   c1.033,0.487,2.121,0.718,3.193,0.718c2.813,0,5.51-1.591,6.789-4.304l44.775-94.969   C153.937,284.394,152.332,279.925,148.585,278.159z" fill="#FFFFFF"/>
	<path d="M215.748,135.706c-3.744-1.766-8.216-0.162-9.982,3.585l-55.01,116.677c-1.766,3.747-0.161,8.216,3.586,9.982   c1.033,0.487,2.121,0.718,3.193,0.718c2.813,0,5.51-1.59,6.789-4.304l55.01-116.677C221.1,141.941,219.495,137.472,215.748,135.706   z" fill="#FFFFFF"/>
	<path d="M33.585,121.966c18.519,0,33.585-15.066,33.585-33.585S52.104,54.796,33.585,54.796S0,69.862,0,88.381   S15.066,121.966,33.585,121.966z M33.585,69.796c10.248,0,18.585,8.337,18.585,18.585c0,10.248-8.337,18.585-18.585,18.585   S15,98.628,15,88.381C15,78.133,23.337,69.796,33.585,69.796z" fill="#FFFFFF"/>
	<path d="M179.835,358.174c-16.541,0-29.998,13.458-29.998,29.999s13.457,29.999,29.998,29.999   c16.542,0,29.999-13.458,29.999-29.999S196.377,358.174,179.835,358.174z M179.835,403.172c-8.27,0-14.998-6.729-14.998-14.999   s6.729-14.999,14.998-14.999c8.271,0,14.999,6.729,14.999,14.999S188.105,403.172,179.835,403.172z" fill="#FFFFFF"/>
	<path d="M345.434,247.182c-11.579,0-20.999,9.42-20.999,20.999c0,1.697,0.224,3.338,0.606,4.919   c-1.663-0.272-3.367-0.42-5.105-0.42c-17.368,0-31.499,14.13-31.499,31.499c0,17.368,14.131,31.499,31.499,31.499   s31.498-14.13,31.498-31.499c0-5.471-1.404-10.619-3.868-15.107c10.582-1.072,18.868-10.032,18.868-20.891   C366.434,256.602,357.013,247.182,345.434,247.182z M319.936,320.678c-9.098,0-16.499-7.401-16.499-16.499   c0-9.098,7.401-16.499,16.499-16.499c9.097,0,16.498,7.401,16.498,16.499C336.434,313.277,329.032,320.678,319.936,320.678z    M345.434,274.181c-3.308,0-5.999-2.691-5.999-6s2.691-5.999,5.999-5.999c3.309,0,6,2.691,6,5.999S348.742,274.181,345.434,274.181   z" fill="#FFFFFF"/>
</g>
<g>
</g>
<g>
</g>
<g>
</g>
<g>
</g>
<g>
</g>
<g>
</g>
<g>
</g>
<g>
</g>
<g>
</g>
<g>
</g>
<g>
</g>
<g>
</g>
<g>
</g>
<g>
</g>
<g>
</g>
</svg>
